<svg xmlns="http://www.w3.org/2000/svg" xmlns:xlink="http://www.w3.org/1999/xlink" width="500" zoomAndPan="magnify" viewBox="0 0 375 374.999991" height="500" preserveAspectRatio="xMidYMid meet" version="1.0"><defs><g/><clipPath id="13010f210b"><path d="M 32.566406 137.632812 L 138 137.632812 L 138 156 L 32.566406 156 Z M 32.566406 137.632812 " clip-rule="nonzero"/></clipPath><clipPath id="d8d1c4f4d1"><path d="M 40.066406 137.632812 L 130.4375 137.632812 C 132.425781 137.632812 134.332031 138.421875 135.738281 139.828125 C 137.148438 141.234375 137.9375 143.144531 137.9375 145.132812 L 137.9375 148.710938 C 137.9375 150.699219 137.148438 152.609375 135.738281 154.015625 C 134.332031 155.421875 132.425781 156.210938 130.4375 156.210938 L 40.066406 156.210938 C 38.078125 156.210938 36.171875 155.421875 34.765625 154.015625 C 33.359375 152.609375 32.566406 150.699219 32.566406 148.710938 L 32.566406 145.132812 C 32.566406 143.144531 33.359375 141.234375 34.765625 139.828125 C 36.171875 138.421875 38.078125 137.632812 40.066406 137.632812 " clip-rule="nonzero"/></clipPath><clipPath id="570617b943"><path d="M 32.566406 162.824219 L 138 162.824219 L 138 181.851562 L 32.566406 181.851562 Z M 32.566406 162.824219 " clip-rule="nonzero"/></clipPath><clipPath id="bcb0b8dd90"><path d="M 40.066406 162.824219 L 130.4375 162.824219 C 132.425781 162.824219 134.332031 163.613281 135.738281 165.023438 C 137.148438 166.429688 137.9375 168.335938 137.9375 170.324219 L 137.9375 173.902344 C 137.9375 175.890625 137.148438 177.800781 135.738281 179.207031 C 134.332031 180.613281 132.425781 181.402344 130.4375 181.402344 L 40.066406 181.402344 C 38.078125 181.402344 36.171875 180.613281 34.765625 179.207031 C 33.359375 177.800781 32.566406 175.890625 32.566406 173.902344 L 32.566406 170.324219 C 32.566406 168.335938 33.359375 166.429688 34.765625 165.023438 C 36.171875 163.613281 38.078125 162.824219 40.066406 162.824219 " clip-rule="nonzero"/></clipPath><clipPath id="754d3e9e23"><path d="M 32.566406 189.109375 L 138 189.109375 L 138 208 L 32.566406 208 Z M 32.566406 189.109375 " clip-rule="nonzero"/></clipPath><clipPath id="5b5a5cdc71"><path d="M 40.066406 189.109375 L 130.4375 189.109375 C 132.425781 189.109375 134.332031 189.898438 135.738281 191.304688 C 137.148438 192.710938 137.9375 194.621094 137.9375 196.609375 L 137.9375 200.1875 C 137.9375 202.175781 137.148438 204.082031 135.738281 205.492188 C 134.332031 206.898438 132.425781 207.6875 130.4375 207.6875 L 40.066406 207.6875 C 38.078125 207.6875 36.171875 206.898438 34.765625 205.492188 C 33.359375 204.082031 32.566406 202.175781 32.566406 200.1875 L 32.566406 196.609375 C 32.566406 194.621094 33.359375 192.710938 34.765625 191.304688 C 36.171875 189.898438 38.078125 189.109375 40.066406 189.109375 " clip-rule="nonzero"/></clipPath><clipPath id="bfaf356b41"><path d="M 32.566406 214.328125 L 138 214.328125 L 138 233 L 32.566406 233 Z M 32.566406 214.328125 " clip-rule="nonzero"/></clipPath><clipPath id="0c2aefd63e"><path d="M 40.066406 214.328125 L 130.4375 214.328125 C 132.425781 214.328125 134.332031 215.121094 135.738281 216.527344 C 137.148438 217.933594 137.9375 219.839844 137.9375 221.828125 L 137.9375 225.40625 C 137.9375 227.398438 137.148438 229.304688 135.738281 230.710938 C 134.332031 232.117188 132.425781 232.90625 130.4375 232.90625 L 40.066406 232.90625 C 38.078125 232.90625 36.171875 232.117188 34.765625 230.710938 C 33.359375 229.304688 32.566406 227.398438 32.566406 225.40625 L 32.566406 221.828125 C 32.566406 219.839844 33.359375 217.933594 34.765625 216.527344 C 36.171875 215.121094 38.078125 214.328125 40.066406 214.328125 " clip-rule="nonzero"/></clipPath></defs><g clip-path="url(#13010f210b)"><g clip-path="url(#d8d1c4f4d1)"><path fill="#a9d6e5" d="M 32.566406 137.632812 L 138.265625 137.632812 L 138.265625 155.953125 L 32.566406 155.953125 Z M 32.566406 137.632812 " fill-opacity="1" fill-rule="nonzero"/></g></g><g clip-path="url(#570617b943)"><g clip-path="url(#bcb0b8dd90)"><path fill="#61a5c2" d="M 32.566406 162.824219 L 138.265625 162.824219 L 138.265625 181.144531 L 32.566406 181.144531 Z M 32.566406 162.824219 " fill-opacity="1" fill-rule="nonzero"/></g></g><g clip-path="url(#754d3e9e23)"><g clip-path="url(#5b5a5cdc71)"><path fill="#2c7da0" d="M 32.566406 189.109375 L 138.265625 189.109375 L 138.265625 207.429688 L 32.566406 207.429688 Z M 32.566406 189.109375 " fill-opacity="1" fill-rule="nonzero"/></g></g><g clip-path="url(#bfaf356b41)"><g clip-path="url(#0c2aefd63e)"><path fill="#014f86" d="M 32.566406 214.328125 L 138.265625 214.328125 L 138.265625 232.648438 L 32.566406 232.648438 Z M 32.566406 214.328125 " fill-opacity="1" fill-rule="nonzero"/></g></g><g fill="#002139" fill-opacity="1"><g transform="translate(144.40022, 210.334131)"><g><path d="M 1.5 -26.984375 C 1.5 -34.773438 4.15625 -41.367188 9.46875 -46.765625 C 14.78125 -52.171875 21.179688 -54.875 28.671875 -54.875 C 36.210938 -54.875 42.617188 -52.179688 47.890625 -46.796875 C 53.160156 -41.421875 55.796875 -34.816406 55.796875 -26.984375 C 55.796875 -19.097656 53.203125 -12.460938 48.015625 -7.078125 C 42.828125 -1.703125 36.378906 0.984375 28.671875 0.984375 C 20.796875 0.984375 14.296875 -1.679688 9.171875 -7.015625 C 4.054688 -12.359375 1.5 -19.015625 1.5 -26.984375 Z M 14.765625 -26.984375 C 14.765625 -24.148438 15.195312 -21.566406 16.0625 -19.234375 C 16.9375 -16.910156 18.460938 -14.941406 20.640625 -13.328125 C 22.816406 -11.710938 25.492188 -10.90625 28.671875 -10.90625 C 33.242188 -10.90625 36.695312 -12.472656 39.03125 -15.609375 C 41.363281 -18.742188 42.53125 -22.535156 42.53125 -26.984375 C 42.53125 -31.378906 41.34375 -35.15625 38.96875 -38.3125 C 36.59375 -41.46875 33.160156 -43.046875 28.671875 -43.046875 C 24.234375 -43.046875 20.804688 -41.46875 18.390625 -38.3125 C 15.972656 -35.15625 14.765625 -31.378906 14.765625 -26.984375 Z M 14.765625 -26.984375 "/></g></g></g><g fill="#002139" fill-opacity="1"><g transform="translate(201.686181, 210.334131)"><g><path d="M 5.578125 -53.375 C 6.691406 -54.375 7.988281 -54.875 9.46875 -54.875 C 10.945312 -54.875 12.253906 -54.375 13.390625 -53.375 C 14.523438 -52.375 15.09375 -51.238281 15.09375 -49.96875 L 15.09375 -49.71875 C 15.09375 -48.84375 14.753906 -46.847656 14.078125 -43.734375 C 13.398438 -40.617188 12.710938 -37.710938 12.015625 -35.015625 L 11.046875 -31.03125 L 6.65625 -31.03125 C 4.832031 -41.476562 3.921875 -47.707031 3.921875 -49.71875 L 3.921875 -49.96875 C 3.921875 -51.238281 4.472656 -52.375 5.578125 -53.375 Z M 5.578125 -53.375 "/></g></g></g><g fill="#002139" fill-opacity="1"><g transform="translate(220.694404, 210.334131)"><g><path d="M 5.875 -33.515625 L 5.875 -40.640625 C 5.914062 -45.640625 7.09375 -49.640625 9.40625 -52.640625 C 11.71875 -55.648438 14.921875 -57.15625 19.015625 -57.15625 C 20.753906 -57.15625 22.414062 -56.90625 24 -56.40625 C 25.59375 -55.90625 26.738281 -55.394531 27.4375 -54.875 L 28.546875 -54.15625 L 24.5 -45.984375 C 23.457031 -46.597656 22.300781 -46.90625 21.03125 -46.90625 C 19.59375 -46.90625 18.632812 -46.414062 18.15625 -45.4375 C 17.675781 -44.457031 17.4375 -42.75 17.4375 -40.3125 L 17.4375 -33.515625 L 25.15625 -33.515625 L 25.15625 -24.6875 L 17.4375 -24.6875 L 17.4375 0 L 5.875 0 L 5.875 -24.6875 L 1.046875 -24.6875 L 1.046875 -33.515625 Z M 5.875 -33.515625 "/></g></g></g><g fill="#002139" fill-opacity="1"><g transform="translate(245.189543, 210.334131)"><g><path d="M 6.203125 -4.140625 C 3.066406 -7.566406 1.5 -11.757812 1.5 -16.71875 C 1.5 -21.6875 3.066406 -25.890625 6.203125 -29.328125 C 9.335938 -32.773438 13.320312 -34.5 18.15625 -34.5 C 22.601562 -34.5 26.265625 -33.101562 29.140625 -30.3125 L 29.140625 -33.515625 L 40.703125 -33.515625 L 40.703125 0 L 29.265625 0 L 29.265625 -3.78125 L 29.140625 -3.78125 C 26.265625 -0.601562 22.601562 0.984375 18.15625 0.984375 C 13.320312 0.984375 9.335938 -0.722656 6.203125 -4.140625 Z M 16.03125 -22.40625 C 14.53125 -20.925781 13.78125 -19.03125 13.78125 -16.71875 C 13.78125 -14.414062 14.5 -12.535156 15.9375 -11.078125 C 17.375 -9.617188 19.269531 -8.890625 21.625 -8.890625 C 23.882812 -8.890625 25.742188 -9.628906 27.203125 -11.109375 C 28.660156 -12.585938 29.390625 -14.457031 29.390625 -16.71875 C 29.390625 -19.03125 28.640625 -20.925781 27.140625 -22.40625 C 25.640625 -23.882812 23.800781 -24.625 21.625 -24.625 C 19.40625 -24.625 17.539062 -23.882812 16.03125 -22.40625 Z M 16.03125 -22.40625 "/></g></g></g><g fill="#002139" fill-opacity="1"><g transform="translate(289.803359, 210.334131)"><g><path d="M 12.40625 -33.515625 L 20.578125 -15.28125 L 28.75 -33.515625 L 42.46875 -33.515625 L 24.5 0 L 16.65625 0 L -1.3125 -33.515625 Z M 12.40625 -33.515625 "/></g></g></g></svg>